<svg width="564" height="336" viewBox="0 0 564 336" fill="none" xmlns="http://www.w3.org/2000/svg">
<g clip-path="url(#clip0)">
<path d="M83.8443 220.34C88.6089 216.13 94.0846 212.996 99.9561 211.119C116.387 205.956 133.385 210.954 149.823 215.788C158.698 218.398 167.874 221.096 176.924 222.208C191.426 223.989 204.943 221.503 216.014 215.019C228.455 207.733 237.417 195.192 239.986 181.476C240.311 179.74 240.527 177.982 240.633 176.214C239.408 177.045 238.177 177.863 236.943 178.668C223.958 187.139 205.706 195.059 192.503 184.682C187.434 180.698 184.145 174.042 183.479 166.421C182.766 158.255 185.158 150.113 189.877 144.641C190.646 143.75 191.471 142.919 192.345 142.153C201.91 133.766 217.01 133.314 227.602 141.603C236.571 148.624 241.885 161.309 241.714 174.174C249.383 168.891 256.8 163.178 263.935 157.058L264.555 157.929C257.215 164.225 249.579 170.091 241.677 175.503C241.589 177.586 241.353 179.657 240.972 181.699C238.342 195.733 229.189 208.554 216.487 215.994C205.237 222.584 191.517 225.112 176.812 223.306C167.687 222.186 158.474 219.476 149.563 216.856C132.507 211.84 116.396 207.102 100.233 212.182C83.9863 217.288 70.8632 232.951 67.5759 251.157C64.2874 269.363 70.9749 289.343 84.2162 300.874L83.591 301.74C70.0617 289.959 63.2292 269.544 66.5886 250.942C68.7598 238.919 75.1297 227.981 83.8443 220.34ZM240.694 174.873C241.074 162.118 235.89 149.448 227.017 142.504C215.855 133.767 199.521 135.068 190.608 145.401C186.085 150.644 183.795 158.463 184.481 166.316C185.119 173.619 188.256 179.985 193.088 183.783C205.85 193.813 223.701 186.021 236.429 177.717C237.856 176.787 239.278 175.839 240.694 174.873Z" fill="#3F3D56"/>
<path d="M140.12 314.446C217.505 314.446 280.239 311.229 280.239 307.261C280.239 303.293 217.505 300.077 140.12 300.077C62.7336 300.077 0 303.293 0 307.261C0 311.229 62.7336 314.446 140.12 314.446Z" fill="#3F3D56"/>
<path d="M134.837 336C162.346 336 184.646 332.783 184.646 328.815C184.646 324.847 162.346 321.631 134.837 321.631C107.328 321.631 85.0277 324.847 85.0277 328.815C85.0277 332.783 107.328 336 134.837 336Z" fill="#3F3D56"/>
<path d="M93.3292 156.66V161.081C93.3292 161.081 88.7894 184.199 95.8448 183.188C107.417 181.53 98.8635 162.739 98.8635 162.739V158.87L93.3292 156.66Z" fill="#FFB8B8"/>
<path d="M149.679 281.01L154.207 294.826L165.276 290.405L160.244 277.694L149.679 281.01Z" fill="#FFB8B8"/>
<path d="M122.007 294.826L118.988 306.985L130.56 310.854L131.063 298.142L122.007 294.826Z" fill="#FFB8B8"/>
<path d="M111.945 155.555L110.938 161.634C110.938 161.634 110.435 166.055 110.938 168.818C111.442 171.582 147.666 285.984 147.666 285.984L163.263 279.352L143.138 206.952L140.623 151.133L111.945 155.555Z" fill="#2F2E41"/>
<path d="M131.566 154.449L129.554 236.244C129.554 236.244 125.026 241.77 126.032 245.639C127.038 249.508 123.517 281.562 123.517 281.562L120.498 297.59L133.579 302.011C133.579 302.011 136.095 287.642 138.107 285.984C140.12 284.326 151.691 234.586 151.691 231.27C151.691 227.954 160.244 154.449 160.244 154.449L139.113 145.054L131.566 154.449Z" fill="#2F2E41"/>
<path d="M155.213 285.984C155.213 285.984 149.679 279.352 146.66 285.984C144.399 290.751 141.878 295.365 139.113 299.8C139.113 299.8 123.013 310.301 139.113 313.064C139.113 313.064 148.17 313.617 152.698 310.301C157.226 306.985 169.301 302.011 169.301 300.906C169.301 299.8 166.282 283.552 163.263 285.321C160.244 287.089 155.213 285.984 155.213 285.984Z" fill="#2F2E41"/>
<path d="M127.541 304.222C127.541 304.222 123.013 297.037 118.988 302.011C114.963 306.985 109.932 321.354 109.932 321.354C109.932 321.354 100.876 336.276 114.963 335.724C129.051 335.171 130.057 329.644 130.057 329.644C130.057 329.644 132.07 315.275 132.07 314.722C132.07 314.17 131.063 308.489 131.063 308.489L127.541 304.222Z" fill="#2F2E41"/>
<path d="M124.271 40.8763C132.051 40.8763 138.359 33.9481 138.359 25.4016C138.359 16.8552 132.051 9.92698 124.271 9.92698C116.491 9.92698 110.184 16.8552 110.184 25.4016C110.184 33.9481 116.491 40.8763 124.271 40.8763Z" fill="#FFB8B8"/>
<path d="M116.976 35.0733L118.988 52.7586L125.026 69.3386L138.107 52.206V43.916C138.107 43.916 134.082 37.284 135.088 31.7573L116.976 35.0733Z" fill="#FFB8B8"/>
<path d="M124.02 56.6273L116.976 53.3113L109.429 151.133L110.938 157.213C110.938 157.213 114.963 159.976 127.541 157.765C140.12 155.555 160.748 157.213 160.748 157.213L162.257 106.92L137.604 47.7846L124.02 56.6273Z" fill="#D0CDE1"/>
<path d="M111.442 153.344C111.442 153.344 121.001 62.1539 120.498 60.4959C119.995 58.8379 111.442 54.3484 111.442 54.3484C111.442 54.3484 96.851 64.9173 97.3542 68.7859C97.8573 72.6546 106.913 154.449 106.913 154.449L111.442 153.344Z" fill="#575A89"/>
<path d="M149.679 146.712C149.679 146.712 134.585 82.0499 134.082 67.6806C133.579 53.3113 133.579 51.6533 133.579 51.6533C133.579 51.6533 156.723 42.8106 164.773 51.6533L166.282 98.0772C166.282 98.0772 168.797 117.973 167.791 124.053C167.098 128.011 166.088 131.895 164.773 135.659C164.773 135.659 170.307 141.738 165.276 143.396C160.244 145.054 156.723 142.291 154.71 145.054C152.698 147.817 149.679 146.712 149.679 146.712Z" fill="#575A89"/>
<path d="M100.876 65.4699C100.876 65.4699 94.8386 65.4699 95.3417 73.2073C95.8448 80.9446 95.3417 116.868 95.3417 116.868C95.3417 116.868 90.8136 147.265 92.3229 149.475C93.8323 151.686 91.8198 158.87 91.8198 158.87L100.876 161.081C100.876 161.081 101.882 153.344 103.895 152.791C105.907 152.239 108.926 136.211 108.926 136.211L100.876 65.4699Z" fill="#575A89"/>
<path d="M168.798 133.448L166.487 138.062C166.487 138.062 150.641 151.924 158.461 157.055C166.282 162.187 173.829 143.396 173.829 143.396L176.344 138.422L168.798 133.448Z" fill="#FFB8B8"/>
<path d="M157.729 50.548L164.773 51.6533C164.773 51.6533 172.823 57.7326 173.326 61.0486C173.829 64.3646 189.929 94.7612 189.929 94.7612C190.878 97.0159 191.392 99.4622 191.438 101.946C191.438 105.815 185.904 135.106 182.885 135.659C179.866 136.211 177.854 141.738 177.854 141.738L167.288 134.553C167.321 132.882 167.49 131.218 167.791 129.579C168.294 126.816 170.307 121.289 170.307 121.289L173.326 109.683C172.857 109.297 172.477 108.796 172.215 108.221C171.953 107.645 171.816 107.011 171.816 106.367C171.816 104.157 163.263 92.5506 163.263 92.5506L157.729 50.548Z" fill="#575A89"/>
<path d="M122.452 62.2697C122.452 62.2697 109.429 58.2853 110.435 55.5219C111.442 52.7586 112.448 52.206 112.448 52.206C112.448 52.206 113.957 47.7846 115.467 47.7846C116.976 47.7846 118.268 46.4271 118.268 46.4271L124.02 56.6273L122.452 62.2697Z" fill="#D0CDE1"/>
<path d="M136.605 40.8763C136.605 40.8763 141.629 39.4946 143.641 41.1526C145.654 42.8106 147.163 42.8106 147.666 43.916C148.17 45.0213 154.71 46.1266 152.698 47.7846C150.685 49.4426 124.02 56.6273 124.02 56.6273L136.598 46.6793L136.605 40.8763Z" fill="#D0CDE1"/>
<path d="M138.175 8.93607C135.928 4.92656 132.409 1.97197 128.298 0.64098L125.277 3.29496L126.452 0.199402C125.464 0.0339358 124.465 -0.0295126 123.467 0.00989564L120.749 3.84763L121.874 0.141349C119.516 0.463221 117.245 1.31826 115.202 2.65255C113.16 3.98684 111.392 5.77144 110.009 7.89381C106.551 13.3717 106.782 20.9862 110.184 26.5069C111.118 23.3548 111.436 20.4004 112.37 17.2483C113.103 17.3582 113.847 17.3621 114.582 17.2601L115.718 14.3483L116.035 17.1369C119.557 16.7999 124.779 16.0601 128.118 15.3822L127.793 13.243L129.735 15.0207C130.758 14.762 131.365 14.5275 131.315 14.3483C133.798 18.7448 136.258 21.553 138.74 25.9495C139.683 19.748 141.346 14.5932 138.175 8.93607Z" fill="#2F2E41"/>
<path d="M137.352 25.4016C137.908 25.4016 138.359 24.4119 138.359 23.191C138.359 21.9701 137.908 20.9803 137.352 20.9803C136.797 20.9803 136.346 21.9701 136.346 23.191C136.346 24.4119 136.797 25.4016 137.352 25.4016Z" fill="#FFB8B8"/>
<path d="M52.4353 307.113L51.8954 306.891C51.7767 306.841 39.9671 301.871 34.435 290.601C28.9026 279.331 31.6116 265.762 31.6396 265.626L31.7671 265.008L32.3068 265.231C32.4254 265.28 44.2348 270.25 49.7672 281.52C55.2996 292.79 52.5906 306.359 52.5626 306.495L52.4353 307.113ZM35.3208 290.077C39.9981 299.606 49.3304 304.49 51.6949 305.605C52.1445 302.821 53.5543 291.564 48.8813 282.044C44.2088 272.526 34.8728 267.634 32.5072 266.516C32.0575 269.302 30.6481 280.558 35.3208 290.077Z" fill="#3F3D56"/>
<path d="M38.6628 286.648C48.6048 293.219 52.4338 306.269 52.4338 306.269C52.4338 306.269 40.1436 308.667 30.2016 302.097C20.2597 295.526 16.4307 282.476 16.4307 282.476C16.4307 282.476 28.7208 280.078 38.6628 286.648Z" fill="#FF9473"/>
<path d="M255.083 164.031H485.102C528.676 164.031 564 136.75 564 88.885V88.8848C564 41.0199 528.676 21.0699 485.102 21.0699H412.878C325.73 21.0699 255.083 68.3014 255.083 164.031V164.031Z" fill="#3F3D56"/>
<path d="M472.262 152.437H280.827V151.884C280.827 114.289 294.162 83.3155 319.39 62.3118C342.686 42.9161 374.818 32.664 412.311 32.664H472.262C491.383 32.664 507.496 37.2791 518.86 46.0101C531.73 55.8995 538.256 70.5343 538.256 89.5077C538.256 108.577 531.559 124.662 518.889 136.023C507.086 146.608 490.527 152.437 472.262 152.437ZM281.834 151.332H472.262C511.133 151.332 537.25 126.487 537.25 89.5079C537.25 54.0852 513.563 33.7694 472.262 33.7694H412.311C349.369 33.7694 282.121 64.6706 281.834 151.332Z" fill="#FF9473"/>
<path d="M379.857 69.6149H352.689V76.7996H379.857V69.6149Z" fill="#FF9473"/>
<path d="M473.941 69.6149H464.382V76.7996H473.941V69.6149Z" fill="#FF9473"/>
<path d="M493.06 69.6149H483.5V76.7996H493.06V69.6149Z" fill="#FF9473"/>
<path d="M454.319 69.6149H389.417V76.7996H454.319V69.6149Z" fill="#FF9473"/>
<path d="M345.645 116.039H318.476V123.224H345.645V116.039Z" fill="#FF9473"/>
<path d="M439.729 116.039H430.169V123.224H439.729V116.039Z" fill="#FF9473"/>
<path d="M458.848 116.039H449.288V123.224H458.848V116.039Z" fill="#FF9473"/>
<path d="M420.107 116.039H355.204V123.224H420.107V116.039Z" fill="#FF9473"/>
<path d="M457.841 85.6423H430.673V92.8269H457.841V85.6423Z" fill="#FF9473"/>
<path d="M494.569 85.6423H467.401V92.8269H494.569V85.6423Z" fill="#FF9473"/>
<path d="M513.688 85.6423H504.129V92.8269H513.688V85.6423Z" fill="#FF9473"/>
<path d="M328.036 85.6423H318.476V92.8269H328.036V85.6423Z" fill="#FF9473"/>
<path d="M347.154 85.6423H337.595V92.8269H347.154V85.6423Z" fill="#FF9473"/>
<path d="M421.616 85.6423H356.714V92.8269H421.616V85.6423Z" fill="#FF9473"/>
<path d="M374.323 108.302H401.492V101.117H374.323V108.302Z" fill="#FF9473"/>
<path d="M337.595 108.302H364.764V101.117H337.595V108.302Z" fill="#FF9473"/>
<path d="M318.476 108.302H328.036V101.117H318.476V108.302Z" fill="#FF9473"/>
<path d="M504.129 108.302H513.688V101.117H504.129V108.302Z" fill="#FF9473"/>
<path d="M485.01 108.302H494.569V101.117H485.01V108.302Z" fill="#FF9473"/>
<path d="M410.548 108.302L475.451 108.302V101.117L410.548 101.117V108.302Z" fill="#FF9473"/>
<path d="M86.0339 296.761H76.4746V305.051H86.0339V296.761Z" fill="#FF9473"/>
<path d="M165.024 321.078H155.465V329.368H165.024V321.078Z" fill="#FF9473"/>
</g>
<defs>
<clipPath id="clip0">
<rect width="564" height="336" fill="white"/>
</clipPath>
</defs>
</svg>
