<svg width="561" height="360" viewBox="0 0 561 360" fill="none" xmlns="http://www.w3.org/2000/svg">
<g clip-path="url(#clip0)">
<path d="M561 0.218994H174.65V247.689H561V0.218994Z" fill="#E6E6E6"/>
<path d="M549.952 31.2579H185.697V233.049H549.952V31.2579Z" fill="white"/>
<path d="M560.835 0H174.485V16.4158H560.835V0Z" fill="#F46F6F"/>
<path d="M186.682 11.4352C188.362 11.4352 189.724 10.073 189.724 8.39264C189.724 6.71229 188.362 5.3501 186.682 5.3501C185.002 5.3501 183.64 6.71229 183.64 8.39264C183.64 10.073 185.002 11.4352 186.682 11.4352Z" fill="white"/>
<path d="M198.229 11.4352C199.909 11.4352 201.271 10.073 201.271 8.39264C201.271 6.71229 199.909 5.3501 198.229 5.3501C196.549 5.3501 195.187 6.71229 195.187 8.39264C195.187 10.073 196.549 11.4352 198.229 11.4352Z" fill="white"/>
<path d="M209.776 11.4352C211.457 11.4352 212.819 10.073 212.819 8.39264C212.819 6.71229 211.457 5.3501 209.776 5.3501C208.096 5.3501 206.734 6.71229 206.734 8.39264C206.734 10.073 208.096 11.4352 209.776 11.4352Z" fill="white"/>
<path d="M446.885 50.1582H328.295C328.042 50.1248 327.809 50.0006 327.641 49.8085C327.473 49.6165 327.38 49.3699 327.38 49.1145C327.38 48.8591 327.473 48.6125 327.641 48.4204C327.809 48.2284 328.042 48.1042 328.295 48.0708H446.885C447.138 48.1042 447.37 48.2284 447.539 48.4204C447.707 48.6125 447.8 48.8591 447.8 49.1145C447.8 49.3699 447.707 49.6165 447.539 49.8085C447.37 50.0006 447.138 50.1248 446.885 50.1582Z" fill="#CCCCCC"/>
<path d="M364.714 61.6389H289.314C289.061 61.6055 288.829 61.4813 288.66 61.2892C288.492 61.0972 288.399 60.8506 288.399 60.5952C288.399 60.3398 288.492 60.0932 288.66 59.9012C288.829 59.7092 289.061 59.5849 289.314 59.5515H364.714C364.967 59.5849 365.199 59.7092 365.368 59.9012C365.536 60.0932 365.629 60.3398 365.629 60.5952C365.629 60.8506 365.536 61.0972 365.368 61.2892C365.199 61.4813 364.967 61.6055 364.714 61.6389Z" fill="#CCCCCC"/>
<path d="M446.885 61.8475H371.485C371.232 61.8141 370.999 61.6899 370.831 61.4979C370.663 61.3058 370.57 61.0592 370.57 60.8038C370.57 60.5484 370.663 60.3018 370.831 60.1098C370.999 59.9178 371.232 59.7935 371.485 59.7601H446.885C447.138 59.7935 447.37 59.9178 447.539 60.1098C447.707 60.3018 447.8 60.5484 447.8 60.8038C447.8 61.0592 447.707 61.3058 447.539 61.4979C447.37 61.6899 447.138 61.8141 446.885 61.8475H446.885Z" fill="#CCCCCC"/>
<path d="M364.897 73.1195H289.497C289.244 73.0861 289.012 72.9618 288.843 72.7698C288.675 72.5778 288.582 72.3312 288.582 72.0758C288.582 71.8204 288.675 71.5738 288.843 71.3817C289.012 71.1897 289.244 71.0655 289.497 71.0321H364.897C365.15 71.0655 365.382 71.1897 365.551 71.3817C365.719 71.5738 365.812 71.8204 365.812 72.0758C365.812 72.3312 365.719 72.5778 365.551 72.7698C365.382 72.9618 365.15 73.0861 364.897 73.1195Z" fill="#CCCCCC"/>
<path d="M365.08 84.6001H289.68C289.427 84.5667 289.195 84.4425 289.026 84.2504C288.858 84.0584 288.765 83.8118 288.765 83.5564C288.765 83.301 288.858 83.0544 289.026 82.8624C289.195 82.6703 289.427 82.5461 289.68 82.5127H365.08C365.333 82.5461 365.565 82.6703 365.734 82.8624C365.902 83.0544 365.995 83.301 365.995 83.5564C365.995 83.8118 365.902 84.0584 365.734 84.2504C365.565 84.4425 365.333 84.5667 365.08 84.6001Z" fill="#CCCCCC"/>
<path d="M399.302 73.1195H377.707C377.454 73.0861 377.222 72.9618 377.053 72.7698C376.885 72.5778 376.792 72.3312 376.792 72.0758C376.792 71.8204 376.885 71.5738 377.053 71.3817C377.222 71.1897 377.454 71.0655 377.707 71.0321H399.302C399.555 71.0655 399.788 71.1897 399.956 71.3817C400.125 71.5738 400.217 71.8204 400.217 72.0758C400.217 72.3312 400.125 72.5778 399.956 72.7698C399.788 72.9618 399.555 73.0861 399.302 73.1195Z" fill="#CCCCCC"/>
<path d="M399.302 84.3914H377.707C377.454 84.358 377.222 84.2337 377.053 84.0417C376.885 83.8497 376.792 83.603 376.792 83.3477C376.792 83.0923 376.885 82.8456 377.053 82.6536C377.222 82.4616 377.454 82.3373 377.707 82.304H399.302C399.555 82.3373 399.788 82.4616 399.956 82.6536C400.125 82.8456 400.217 83.0923 400.217 83.3477C400.217 83.603 400.125 83.8497 399.956 84.0417C399.788 84.2337 399.555 84.358 399.302 84.3914Z" fill="#CCCCCC"/>
<path d="M435.538 84.3914H413.943C413.69 84.358 413.458 84.2337 413.289 84.0417C413.121 83.8497 413.028 83.603 413.028 83.3477C413.028 83.0923 413.121 82.8456 413.289 82.6536C413.458 82.4616 413.69 82.3373 413.943 82.304H435.538C435.791 82.3373 436.024 82.4616 436.192 82.6536C436.36 82.8456 436.453 83.0923 436.453 83.3477C436.453 83.603 436.36 83.8497 436.192 84.0417C436.024 84.2337 435.791 84.358 435.538 84.3914Z" fill="#CCCCCC"/>
<path d="M310.36 50.1582H288.765C288.512 50.1248 288.28 50.0006 288.111 49.8085C287.943 49.6165 287.85 49.3699 287.85 49.1145C287.85 48.8591 287.943 48.6125 288.111 48.4204C288.28 48.2284 288.512 48.1042 288.765 48.0708H310.36C310.613 48.1042 310.846 48.2284 311.014 48.4204C311.182 48.6125 311.275 48.8591 311.275 49.1145C311.275 49.3699 311.182 49.6165 311.014 49.8085C310.846 50.0006 310.613 50.1248 310.36 50.1582Z" fill="#CCCCCC"/>
<path d="M364.439 181.794H289.04C288.787 181.76 288.554 181.636 288.386 181.444C288.217 181.252 288.125 181.005 288.125 180.75C288.125 180.495 288.217 180.248 288.386 180.056C288.554 179.864 288.787 179.74 289.04 179.706H364.439C364.692 179.74 364.925 179.864 365.093 180.056C365.262 180.248 365.354 180.495 365.354 180.75C365.354 181.005 365.262 181.252 365.093 181.444C364.925 181.636 364.692 181.76 364.439 181.794H364.439Z" fill="#CCCCCC"/>
<path d="M364.073 204.755H288.674C288.42 204.722 288.188 204.597 288.02 204.405C287.851 204.213 287.759 203.967 287.759 203.711C287.759 203.456 287.851 203.209 288.02 203.017C288.188 202.825 288.42 202.701 288.674 202.667H364.073C364.326 202.701 364.559 202.825 364.727 203.017C364.895 203.209 364.988 203.456 364.988 203.711C364.988 203.967 364.895 204.213 364.727 204.405C364.559 204.597 364.326 204.722 364.073 204.755H364.073Z" fill="#CCCCCC"/>
<path d="M364.256 216.236H288.857C288.604 216.202 288.371 216.078 288.203 215.886C288.034 215.694 287.942 215.447 287.942 215.192C287.942 214.937 288.034 214.69 288.203 214.498C288.371 214.306 288.604 214.182 288.857 214.148H364.256C364.509 214.182 364.742 214.306 364.91 214.498C365.078 214.69 365.171 214.937 365.171 215.192C365.171 215.447 365.078 215.694 364.91 215.886C364.742 216.078 364.509 216.202 364.256 216.236H364.256Z" fill="#CCCCCC"/>
<path d="M396.466 204.964H374.871C374.618 204.93 374.385 204.806 374.217 204.614C374.048 204.422 373.956 204.175 373.956 203.92C373.956 203.665 374.048 203.418 374.217 203.226C374.385 203.034 374.618 202.91 374.871 202.876H396.466C396.719 202.91 396.951 203.034 397.12 203.226C397.288 203.418 397.381 203.665 397.381 203.92C397.381 204.175 397.288 204.422 397.12 204.614C396.951 204.806 396.719 204.93 396.466 204.964Z" fill="#CCCCCC"/>
<path d="M396.466 216.236H374.871C374.618 216.202 374.385 216.078 374.217 215.886C374.048 215.694 373.956 215.447 373.956 215.192C373.956 214.937 374.048 214.69 374.217 214.498C374.385 214.306 374.618 214.182 374.871 214.148H396.466C396.719 214.182 396.951 214.306 397.12 214.498C397.288 214.69 397.381 214.937 397.381 215.192C397.381 215.447 397.288 215.694 397.12 215.886C396.951 216.078 396.719 216.202 396.466 216.236Z" fill="#CCCCCC"/>
<path d="M432.701 204.964H411.106C410.853 204.93 410.621 204.806 410.453 204.614C410.284 204.422 410.191 204.175 410.191 203.92C410.191 203.665 410.284 203.418 410.453 203.226C410.621 203.034 410.853 202.91 411.106 202.876H432.701C432.955 202.91 433.187 203.034 433.355 203.226C433.524 203.418 433.616 203.665 433.616 203.92C433.616 204.175 433.524 204.422 433.355 204.614C433.187 204.806 432.955 204.93 432.701 204.964Z" fill="#CCCCCC"/>
<path d="M446.976 193.274H328.387C328.133 193.241 327.901 193.117 327.733 192.925C327.564 192.733 327.471 192.486 327.471 192.231C327.471 191.975 327.564 191.729 327.733 191.537C327.901 191.345 328.133 191.22 328.387 191.187H446.976C447.229 191.22 447.462 191.345 447.63 191.537C447.798 191.729 447.891 191.975 447.891 192.231C447.891 192.486 447.798 192.733 447.63 192.925C447.462 193.117 447.229 193.241 446.976 193.274Z" fill="#CCCCCC"/>
<path d="M310.452 193.274H288.857C288.604 193.241 288.371 193.117 288.203 192.925C288.034 192.733 287.942 192.486 287.942 192.231C287.942 191.975 288.034 191.729 288.203 191.537C288.371 191.345 288.604 191.22 288.857 191.187H310.452C310.705 191.22 310.937 191.345 311.106 191.537C311.274 191.729 311.367 191.975 311.367 192.231C311.367 192.486 311.274 192.733 311.106 192.925C310.937 193.117 310.705 193.241 310.452 193.274Z" fill="#CCCCCC"/>
<path d="M346.23 103.145L316.948 132.065L346.23 160.984L352.818 154.395L330.674 132.247L353.001 109.917L346.23 103.145Z" fill="#E6E6E6"/>
<path d="M389.42 103.145L418.701 132.065L389.42 160.984L382.832 154.395L404.976 132.247L382.649 109.917L389.42 103.145Z" fill="#E6E6E6"/>
<path d="M346.23 103.145L316.948 132.065L346.23 160.984L352.818 154.395L330.674 132.247L353.001 109.917L346.23 103.145Z" fill="#F46F6F"/>
<path d="M389.42 103.145L418.701 132.065L389.42 160.984L382.832 154.395L404.976 132.247L382.649 109.917L389.42 103.145Z" fill="#F46F6F"/>
<path d="M297.349 345.058C306.46 357.261 325.373 358.546 325.373 358.546C325.373 358.546 329.514 340.045 320.403 327.842C311.292 315.638 292.379 314.354 292.379 314.354C292.379 314.354 288.238 332.855 297.349 345.058Z" fill="#E6E6E6"/>
<path d="M343.763 349.646C337.75 357.698 325.271 358.546 325.271 358.546C325.271 358.546 322.538 346.338 328.55 338.285C334.562 330.232 347.042 329.385 347.042 329.385C347.042 329.385 349.775 341.593 343.763 349.646Z" fill="#E6E6E6"/>
<path d="M94.6665 291.318V322.994H85.6172L79.585 289.809L94.6665 291.318Z" fill="#FFB9B9"/>
<path d="M23.0277 291.318V322.994H13.979L7.94611 289.809L23.0277 291.318Z" fill="#FFB9B9"/>
<path d="M70.7654 57.8107C70.7654 57.8107 56.2241 47.3577 54.4064 52.357C52.5888 57.3562 65.3124 66.4458 65.3124 66.4458L70.7654 57.8107Z" fill="#FFB9B9"/>
<path d="M19.1891 71.2178C19.1891 89.29 26.9689 89.8515 39.6428 89.8515C52.3166 89.8515 65.0852 89.29 65.0852 71.2178C65.0852 53.1457 54.811 38.4954 42.1371 38.4954C29.4633 38.4954 19.1891 53.1457 19.1891 71.2178Z" fill="#2F2E41"/>
<path d="M50.3167 70.9906C50.3167 70.9906 48.499 84.625 57.1329 85.5339C65.7669 86.4429 28.9591 89.1698 28.9591 89.1698C28.9591 89.1698 38.5019 80.5347 33.5033 73.7175C28.5047 66.9003 50.3167 70.9906 50.3167 70.9906Z" fill="#FFB9B9"/>
<path d="M96.2128 314.591L99.3937 341.406C99.3937 341.406 115.298 360.948 105.301 359.585C95.3039 358.221 88.9421 359.875 88.9421 358.057C88.9421 356.239 88.7071 349.744 87.3438 349.744C85.9805 349.744 84.8523 360 84.8523 360C84.8523 360 80.7626 359.69 80.3082 359.236C79.8538 358.781 79.3993 332.77 79.3993 332.77C79.3993 332.77 78.0361 325.044 80.7626 321.409C83.4891 317.773 83.0347 314.591 83.0347 314.591L96.2128 314.591Z" fill="#2F2E41"/>
<path d="M23.82 314.297L27.0009 341.111C27.0009 341.111 42.9055 360.653 32.9083 359.29C22.9112 357.926 16.5493 359.58 16.5493 357.762C16.5493 355.944 16.3143 349.449 14.951 349.449C13.5878 349.449 12.4596 359.705 12.4596 359.705C12.4596 359.705 8.36983 359.396 7.91541 358.941C7.46099 358.487 7.00658 332.476 7.00658 332.476C7.00658 332.476 5.64334 324.75 8.36983 321.114C11.0963 317.478 10.6419 314.297 10.6419 314.297H23.82Z" fill="#2F2E41"/>
<path d="M72.5831 155.069C72.5831 155.069 87.1244 196.427 88.0332 205.516C88.9421 214.606 87.1244 245.511 87.1244 245.511C87.1244 245.511 100.303 298.908 97.576 299.363C94.8495 299.817 79.6659 301.972 79.2115 299.699C78.7571 297.427 77.1371 293.909 77.5915 292.545C78.0458 291.182 76.2282 286.183 76.2282 283.456C76.2282 280.729 69.8566 266.417 70.311 264.144C70.7654 261.872 62.5859 228.24 61.2226 225.513C59.8594 222.787 56.224 203.698 56.224 203.698C56.224 203.698 35.7753 259.599 35.3209 260.963C34.8665 262.326 33.0488 264.599 33.9576 265.053C34.8664 265.508 32.5944 268.689 32.5944 268.689C32.5944 268.689 27.8856 287.546 27.8856 288.455C27.8856 289.364 28.7945 299.652 26.9768 300.107C25.1591 300.561 6.59252 300.532 5.68369 297.351C4.77485 294.17 15.3265 257.327 15.3265 257.327C15.3265 257.327 23.0516 234.149 20.7795 228.24C18.5074 222.332 23.0516 186.883 24.8693 184.156C26.6869 181.429 27.1414 165.068 27.1414 165.068L72.5831 155.069Z" fill="#2F2E41"/>
<path d="M42.3644 78.4895C50.3954 78.4895 56.9057 71.9782 56.9057 63.9462C56.9057 55.9141 50.3954 49.4028 42.3644 49.4028C34.3334 49.4028 27.8231 55.9141 27.8231 63.9462C27.8231 71.9782 34.3334 78.4895 42.3644 78.4895Z" fill="#FFB9B9"/>
<path d="M50.3166 82.3526C50.3166 82.3526 33.9576 82.8071 33.0488 81.4437C32.14 80.0802 9.41913 84.625 9.41913 93.7146C9.41913 102.804 22.5972 138.254 22.5972 138.254C22.5972 138.254 27.5958 163.704 26.2326 166.431C24.8693 169.158 76.6728 160.523 75.3096 155.978C73.9463 151.433 66.2212 141.435 76.2184 132.8C86.2156 124.165 90.3053 115.075 90.3053 115.075L78.4905 83.716C78.4905 83.716 66.6756 81.8981 63.9491 83.716C61.2226 85.534 50.3166 82.3526 50.3166 82.3526Z" fill="#F46F6F"/>
<path d="M87.1244 117.347L90.3053 115.075C90.3053 115.075 119.842 84.1705 112.117 78.2623C104.392 72.3541 93.0318 66.9003 87.5788 66.4458C82.1258 65.9913 77.5816 61.901 77.5816 61.901C77.5816 61.901 71.6742 51.448 67.1301 58.2652C62.5859 65.0824 57.5873 67.3548 63.9491 69.6272C70.311 71.8996 74.4007 70.9906 77.5816 73.263C80.7626 75.5354 93.0318 79.1712 87.5788 80.5347C84.4519 81.2927 81.4076 82.3584 78.4905 83.716L72.583 94.169L87.1244 117.347Z" fill="#F46F6F"/>
<path d="M35.7753 194.154C35.7753 194.154 47.5901 211.425 38.9562 210.516C30.3223 209.607 26.2325 197.79 26.2325 197.79L35.7753 194.154Z" fill="#FFB9B9"/>
<path d="M12.6 91.4421L9.41914 93.7145C9.41914 93.7145 -1.03245 150.979 9.41914 165.977C19.8707 180.974 20.7796 180.066 20.7796 180.066C20.7796 180.066 22.5972 178.702 23.5061 187.792C24.4149 196.881 23.0516 200.517 25.7781 200.517C28.5046 200.517 40.7739 197.79 39.8651 195.518C38.9562 193.245 33.0488 180.066 32.5944 176.884C32.14 173.703 29.8679 166.431 28.9591 162.341C28.0502 158.251 33.0488 155.978 30.7767 147.343C28.5047 138.708 25.3237 123.256 25.3237 120.074C25.3237 116.893 12.6 91.4421 12.6 91.4421Z" fill="#F46F6F"/>
<path d="M28.2775 50.9936C28.2775 55.8881 34.9913 59.8559 43.2732 59.8559C51.5551 59.8559 59.1778 62.4781 59.1778 57.5835C59.1778 52.689 51.5551 42.1312 43.2732 42.1312C34.9913 42.1312 28.2775 46.099 28.2775 50.9936Z" fill="#2F2E41"/>
<path d="M64.949 74.2852C64.949 74.2852 65.561 90.7605 49.1913 89.8516C32.8216 88.9426 51.4035 75.7687 51.4035 75.7687L64.949 74.2852Z" fill="#2F2E41"/>
<path d="M444.129 358.546H0V359.962H444.129V358.546Z" fill="#3F3D56"/>
</g>
<defs>
<clipPath id="clip0">
<rect width="561" height="360" fill="white"/>
</clipPath>
</defs>
</svg>
