<svg width="1005" height="165" viewBox="0 0 1005 165" fill="none" xmlns="http://www.w3.org/2000/svg">
<path d="M186.659 133.348C179.914 133.348 173.606 132.209 167.736 129.931C161.867 127.566 156.742 124.281 152.362 120.076C148.069 115.871 144.652 110.789 142.112 104.832C139.571 98.8751 138.301 92.2608 138.301 84.9896C138.301 77.7183 139.571 71.1041 142.112 65.1469C144.74 59.1021 148.244 53.9772 152.624 49.7721C157.005 45.4795 162.086 42.1505 167.868 39.7851C173.737 37.4197 179.914 36.2371 186.396 36.2371C193.405 36.2371 199.45 37.2445 204.531 39.2595C209.612 41.2744 213.905 43.8588 217.409 47.0126C220.913 50.0788 223.629 53.4516 225.556 57.131C227.571 60.8104 228.973 64.3147 229.761 67.6437L210.181 73.8199C209.831 72.243 209.13 70.4471 208.079 68.4321C207.115 66.4172 205.713 64.5337 203.874 62.7816C202.034 60.9418 199.669 59.4526 196.778 58.3137C193.974 57.0872 190.514 56.474 186.396 56.474C183.243 56.474 180.089 57.0434 176.935 58.1823C173.781 59.3211 170.934 61.0733 168.393 63.4386C165.853 65.7164 163.794 68.6511 162.217 72.243C160.64 75.8348 159.852 80.0837 159.852 84.9896C159.852 89.3699 160.597 93.2683 162.086 96.6849C163.575 100.102 165.546 102.993 167.999 105.358C170.54 107.723 173.387 109.519 176.541 110.746C179.782 111.972 183.155 112.585 186.659 112.585C190.689 112.585 194.15 112.016 197.04 110.877C199.931 109.651 202.341 108.161 204.268 106.409C206.195 104.569 207.685 102.642 208.736 100.627C209.875 98.6123 210.663 96.7725 211.101 95.108L230.944 100.759C230.155 104 228.754 107.504 226.739 111.271C224.811 115.038 222.052 118.586 218.46 121.915C214.956 125.157 210.576 127.873 205.319 130.063C200.063 132.253 193.843 133.348 186.659 133.348ZM257.317 131.377H237.343V36.2371H257.317V70.2718C259.332 68.2569 261.872 66.7676 264.939 65.804C268.092 64.8403 271.115 64.3585 274.006 64.3585C278.298 64.3585 281.978 65.0593 285.044 66.461C288.198 67.7751 290.782 69.6148 292.797 71.9802C294.812 74.3455 296.301 77.1051 297.265 80.2589C298.229 83.4127 298.711 86.7855 298.711 90.3773V131.377H278.736V93.7939C278.736 90.5525 277.86 87.8806 276.108 85.778C274.444 83.5879 271.772 82.4928 268.092 82.4928C264.939 82.4928 262.398 83.5003 260.471 85.5152C258.543 87.4425 257.492 89.9393 257.317 93.0055V131.377ZM351.501 90.903C351.413 89.6765 351.107 88.4062 350.581 87.0921C350.143 85.778 349.398 84.5954 348.347 83.5441C347.296 82.4928 345.938 81.6168 344.273 80.9159C342.696 80.2151 340.725 79.8647 338.36 79.8647C336.257 79.8647 334.418 80.2151 332.841 80.9159C331.264 81.6168 329.906 82.4928 328.767 83.5441C327.716 84.5954 326.884 85.778 326.27 87.0921C325.745 88.4062 325.438 89.6765 325.35 90.903H351.501ZM369.635 112.585C368.847 115.389 367.62 118.061 365.956 120.601C364.291 123.142 362.189 125.376 359.648 127.303C357.108 129.143 354.129 130.588 350.712 131.64C347.383 132.778 343.66 133.348 339.543 133.348C335.075 133.348 330.782 132.559 326.665 130.983C322.547 129.406 318.911 127.128 315.758 124.149C312.604 121.171 310.107 117.535 308.267 113.242C306.428 108.95 305.508 104.044 305.508 98.5246C305.508 93.2683 306.384 88.5376 308.136 84.3325C309.976 80.0399 312.385 76.4042 315.363 73.4256C318.43 70.4471 321.934 68.1693 325.876 66.5924C329.818 64.9279 333.892 64.0957 338.097 64.0957C348.259 64.0957 356.231 67.0304 362.013 72.9C367.883 78.7696 370.818 87.0045 370.818 97.6048C370.818 99.0065 370.774 100.364 370.686 101.678C370.599 102.905 370.511 103.606 370.424 103.781H324.956C325.044 105.621 325.482 107.329 326.27 108.906C327.146 110.395 328.241 111.709 329.556 112.848C330.957 113.987 332.534 114.863 334.286 115.476C336.038 116.09 337.878 116.396 339.805 116.396C343.485 116.396 346.332 115.608 348.347 114.031C350.449 112.454 351.983 110.395 352.946 107.855L369.635 112.585ZM374.444 113.374C374.444 110.483 374.926 107.898 375.889 105.621C376.941 103.343 378.342 101.416 380.094 99.8387C381.847 98.1742 383.861 96.8601 386.139 95.8965C388.505 94.8452 391.045 94.1006 393.761 93.6625L409.136 91.2972C410.888 91.0344 412.114 90.5087 412.815 89.7203C413.516 88.9318 413.866 87.9682 413.866 86.8293C413.866 84.902 413.034 83.2375 411.37 81.8358C409.793 80.4341 407.427 79.7332 404.274 79.7332C400.769 79.7332 398.054 80.7407 396.126 82.7556C394.287 84.683 393.279 86.8731 393.104 89.3261L375.758 85.778C375.933 83.4127 376.634 80.9597 377.86 78.4192C379.087 75.8786 380.839 73.5571 383.117 71.4545C385.482 69.352 388.417 67.5999 391.921 66.1982C395.425 64.7965 399.587 64.0957 404.405 64.0957C409.661 64.0957 414.129 64.7965 417.809 66.1982C421.488 67.5123 424.467 69.352 426.744 71.7173C429.11 73.9951 430.774 76.6671 431.738 79.7332C432.789 82.7994 433.315 85.997 433.315 89.3261V121.258C433.315 123.799 433.402 126.033 433.578 127.96C433.84 129.887 434.016 131.026 434.103 131.377H416.1C416.013 131.114 415.881 130.413 415.706 129.274C415.531 128.048 415.443 126.296 415.443 124.018C413.691 126.821 411.282 129.055 408.216 130.72C405.15 132.384 401.426 133.216 397.046 133.216C393.454 133.216 390.257 132.647 387.453 131.508C384.65 130.457 382.285 129.011 380.357 127.172C378.43 125.332 376.941 123.229 375.889 120.864C374.926 118.499 374.444 116.002 374.444 113.374ZM401.908 118.762C403.397 118.762 404.843 118.586 406.245 118.236C407.734 117.798 409.004 117.097 410.056 116.133C411.194 115.082 412.114 113.724 412.815 112.06C413.516 110.395 413.866 108.293 413.866 105.752V102.861L401.514 104.832C399.411 105.183 397.659 105.927 396.258 107.066C394.856 108.117 394.155 109.782 394.155 112.06C394.155 113.812 394.725 115.389 395.863 116.79C397.09 118.104 399.105 118.762 401.908 118.762ZM468.14 66.0668H480.887V83.5441H468.14V107.986C468.14 110.702 468.797 112.542 470.111 113.505C471.425 114.381 473.177 114.819 475.368 114.819C476.419 114.819 477.382 114.775 478.259 114.688C479.222 114.513 480.011 114.337 480.624 114.162V130.72C480.186 130.895 479.135 131.245 477.47 131.771C475.806 132.297 473.396 132.559 470.243 132.559C463.409 132.559 458.065 130.72 454.211 127.04C450.356 123.273 448.429 118.104 448.429 111.534V83.5441H436.865V66.0668H440.15C443.567 66.0668 446.107 65.0593 447.772 63.0444C449.436 61.0295 450.269 58.4889 450.269 55.4227V47.0126H468.14V66.0668ZM530.278 90.903C530.19 89.6765 529.884 88.4062 529.358 87.0921C528.92 85.778 528.175 84.5954 527.124 83.5441C526.073 82.4928 524.715 81.6168 523.05 80.9159C521.473 80.2151 519.502 79.8647 517.137 79.8647C515.034 79.8647 513.195 80.2151 511.618 80.9159C510.041 81.6168 508.683 82.4928 507.544 83.5441C506.493 84.5954 505.661 85.778 505.047 87.0921C504.522 88.4062 504.215 89.6765 504.127 90.903H530.278ZM548.412 112.585C547.624 115.389 546.397 118.061 544.733 120.601C543.068 123.142 540.966 125.376 538.425 127.303C535.885 129.143 532.906 130.588 529.489 131.64C526.16 132.778 522.437 133.348 518.32 133.348C513.852 133.348 509.559 132.559 505.442 130.983C501.324 129.406 497.688 127.128 494.535 124.149C491.381 121.171 488.884 117.535 487.044 113.242C485.205 108.95 484.285 104.044 484.285 98.5246C484.285 93.2683 485.161 88.5376 486.913 84.3325C488.753 80.0399 491.162 76.4042 494.14 73.4256C497.207 70.4471 500.711 68.1693 504.653 66.5924C508.595 64.9279 512.669 64.0957 516.874 64.0957C527.036 64.0957 535.008 67.0304 540.79 72.9C546.66 78.7696 549.595 87.0045 549.595 97.6048C549.595 99.0065 549.551 100.364 549.463 101.678C549.376 102.905 549.288 103.606 549.201 103.781H503.733C503.821 105.621 504.259 107.329 505.047 108.906C505.923 110.395 507.018 111.709 508.333 112.848C509.734 113.987 511.311 114.863 513.063 115.476C514.815 116.09 516.655 116.396 518.582 116.396C522.262 116.396 525.109 115.608 527.124 114.031C529.226 112.454 530.76 110.395 531.723 107.855L548.412 112.585ZM598.688 85.778C597.549 85.5152 596.454 85.34 595.403 85.2524C594.352 85.1648 593.344 85.121 592.381 85.121C590.366 85.121 588.438 85.4276 586.599 86.0408C584.759 86.6541 583.138 87.6616 581.736 89.0632C580.335 90.4649 579.196 92.3046 578.32 94.5824C577.531 96.8601 577.137 99.6197 577.137 102.861V131.377H557.163V66.0668H576.48V74.8711C577.356 73.0314 578.451 71.4983 579.765 70.2718C581.167 69.0454 582.656 68.0817 584.233 67.3809C585.81 66.68 587.387 66.1982 588.964 65.9354C590.628 65.5849 592.118 65.4097 593.432 65.4097C595.447 65.4097 597.199 65.6287 598.688 66.0668V85.778ZM668.126 38.2082C672.682 38.2082 676.755 38.8652 680.347 40.1793C684.027 41.4058 687.093 43.1579 689.546 45.4357C691.999 47.6258 693.882 50.254 695.196 53.3202C696.51 56.2988 697.167 59.584 697.167 63.1758C697.167 67.9941 695.853 72.243 693.225 75.9224C690.597 79.5142 687.356 81.9234 683.501 83.1499C685.603 83.6755 687.618 84.5516 689.546 85.778C691.561 86.9169 693.357 88.4062 694.933 90.2459C696.51 92.0856 697.737 94.2758 698.613 96.8163C699.577 99.2693 700.058 101.985 700.058 104.964C700.058 108.818 699.358 112.366 697.956 115.608C696.554 118.762 694.583 121.521 692.042 123.886C689.502 126.252 686.436 128.092 682.844 129.406C679.252 130.72 675.266 131.377 670.886 131.377H633.303V38.2082H668.126ZM664.841 75.5282C668.52 75.5282 671.411 74.6521 673.514 72.9C675.704 71.0603 676.799 68.5635 676.799 65.4097C676.799 62.3435 675.792 59.9344 673.777 58.1823C671.762 56.3426 668.696 55.4227 664.578 55.4227H653.54V75.5282H664.841ZM666.549 114.425C670.579 114.425 673.733 113.461 676.011 111.534C678.288 109.519 679.427 106.847 679.427 103.518C679.427 100.277 678.288 97.6486 676.011 95.6337C673.821 93.6187 670.667 92.6113 666.549 92.6113H653.54V114.425H666.549ZM749.74 90.903C749.652 89.6765 749.346 88.4062 748.82 87.0921C748.382 85.778 747.637 84.5954 746.586 83.5441C745.535 82.4928 744.177 81.6168 742.513 80.9159C740.936 80.2151 738.965 79.8647 736.599 79.8647C734.497 79.8647 732.657 80.2151 731.08 80.9159C729.503 81.6168 728.145 82.4928 727.006 83.5441C725.955 84.5954 725.123 85.778 724.51 87.0921C723.984 88.4062 723.677 89.6765 723.59 90.903H749.74ZM767.874 112.585C767.086 115.389 765.859 118.061 764.195 120.601C762.53 123.142 760.428 125.376 757.887 127.303C755.347 129.143 752.368 130.588 748.952 131.64C745.623 132.778 741.899 133.348 737.782 133.348C733.314 133.348 729.021 132.559 724.904 130.983C720.786 129.406 717.151 127.128 713.997 124.149C710.843 121.171 708.346 117.535 706.507 113.242C704.667 108.95 703.747 104.044 703.747 98.5246C703.747 93.2683 704.623 88.5376 706.375 84.3325C708.215 80.0399 710.624 76.4042 713.603 73.4256C716.669 70.4471 720.173 68.1693 724.115 66.5924C728.058 64.9279 732.131 64.0957 736.336 64.0957C746.499 64.0957 754.471 67.0304 760.253 72.9C766.122 78.7696 769.057 87.0045 769.057 97.6048C769.057 99.0065 769.013 100.364 768.926 101.678C768.838 102.905 768.75 103.606 768.663 103.781H723.195C723.283 105.621 723.721 107.329 724.51 108.906C725.386 110.395 726.481 111.709 727.795 112.848C729.196 113.987 730.773 114.863 732.525 115.476C734.278 116.09 736.117 116.396 738.045 116.396C741.724 116.396 744.571 115.608 746.586 114.031C748.689 112.454 750.222 110.395 751.185 107.855L767.874 112.585ZM772.683 113.374C772.683 110.483 773.165 107.898 774.129 105.621C775.18 103.343 776.582 101.416 778.334 99.8387C780.086 98.1742 782.101 96.8601 784.378 95.8965C786.744 94.8452 789.284 94.1006 792 93.6625L807.375 91.2972C809.127 91.0344 810.353 90.5087 811.054 89.7203C811.755 88.9318 812.106 87.9682 812.106 86.8293C812.106 84.902 811.273 83.2375 809.609 81.8358C808.032 80.4341 805.667 79.7332 802.513 79.7332C799.009 79.7332 796.293 80.7407 794.365 82.7556C792.526 84.683 791.518 86.8731 791.343 89.3261L773.997 85.778C774.172 83.4127 774.873 80.9597 776.1 78.4192C777.326 75.8786 779.078 73.5571 781.356 71.4545C783.721 69.352 786.656 67.5999 790.16 66.1982C793.665 64.7965 797.826 64.0957 802.644 64.0957C807.901 64.0957 812.368 64.7965 816.048 66.1982C819.727 67.5123 822.706 69.352 824.984 71.7173C827.349 73.9951 829.013 76.6671 829.977 79.7332C831.028 82.7994 831.554 85.997 831.554 89.3261V121.258C831.554 123.799 831.642 126.033 831.817 127.96C832.08 129.887 832.255 131.026 832.342 131.377H814.34C814.252 131.114 814.121 130.413 813.945 129.274C813.77 128.048 813.683 126.296 813.683 124.018C811.93 126.821 809.521 129.055 806.455 130.72C803.389 132.384 799.666 133.216 795.285 133.216C791.694 133.216 788.496 132.647 785.693 131.508C782.889 130.457 780.524 129.011 778.596 127.172C776.669 125.332 775.18 123.229 774.129 120.864C773.165 118.499 772.683 116.002 772.683 113.374ZM800.147 118.762C801.637 118.762 803.082 118.586 804.484 118.236C805.973 117.798 807.243 117.097 808.295 116.133C809.434 115.082 810.353 113.724 811.054 112.06C811.755 110.395 812.106 108.293 812.106 105.752V102.861L799.753 104.832C797.651 105.183 795.899 105.927 794.497 107.066C793.095 108.117 792.394 109.782 792.394 112.06C792.394 113.812 792.964 115.389 794.103 116.79C795.329 118.104 797.344 118.762 800.147 118.762ZM866.379 66.0668H879.126V83.5441H866.379V107.986C866.379 110.702 867.036 112.542 868.35 113.505C869.665 114.381 871.417 114.819 873.607 114.819C874.658 114.819 875.622 114.775 876.498 114.688C877.461 114.513 878.25 114.337 878.863 114.162V130.72C878.425 130.895 877.374 131.245 875.709 131.771C874.045 132.297 871.636 132.559 868.482 132.559C861.649 132.559 856.305 130.72 852.45 127.04C848.595 123.273 846.668 118.104 846.668 111.534V83.5441H835.104V66.0668H838.389C841.806 66.0668 844.347 65.0593 846.011 63.0444C847.676 61.0295 848.508 58.4889 848.508 55.4227V47.0126H866.379V66.0668ZM928.517 90.903C928.429 89.6765 928.123 88.4062 927.597 87.0921C927.159 85.778 926.414 84.5954 925.363 83.5441C924.312 82.4928 922.954 81.6168 921.29 80.9159C919.713 80.2151 917.741 79.8647 915.376 79.8647C913.274 79.8647 911.434 80.2151 909.857 80.9159C908.28 81.6168 906.922 82.4928 905.783 83.5441C904.732 84.5954 903.9 85.778 903.287 87.0921C902.761 88.4062 902.454 89.6765 902.367 90.903H928.517ZM946.651 112.585C945.863 115.389 944.636 118.061 942.972 120.601C941.307 123.142 939.205 125.376 936.664 127.303C934.124 129.143 931.145 130.588 927.729 131.64C924.4 132.778 920.676 133.348 916.559 133.348C912.091 133.348 907.798 132.559 903.681 130.983C899.563 129.406 895.928 127.128 892.774 124.149C889.62 121.171 887.123 117.535 885.284 113.242C883.444 108.95 882.524 104.044 882.524 98.5246C882.524 93.2683 883.4 88.5376 885.152 84.3325C886.992 80.0399 889.401 76.4042 892.38 73.4256C895.446 70.4471 898.95 68.1693 902.892 66.5924C906.835 64.9279 910.908 64.0957 915.113 64.0957C925.276 64.0957 933.248 67.0304 939.03 72.9C944.899 78.7696 947.834 87.0045 947.834 97.6048C947.834 99.0065 947.79 100.364 947.703 101.678C947.615 102.905 947.527 103.606 947.44 103.781H901.972C902.06 105.621 902.498 107.329 903.287 108.906C904.163 110.395 905.258 111.709 906.572 112.848C907.973 113.987 909.55 114.863 911.302 115.476C913.055 116.09 914.894 116.396 916.822 116.396C920.501 116.396 923.348 115.608 925.363 114.031C927.466 112.454 928.999 110.395 929.962 107.855L946.651 112.585ZM996.927 85.778C995.788 85.5152 994.693 85.34 993.642 85.2524C992.591 85.1648 991.583 85.121 990.62 85.121C988.605 85.121 986.678 85.4276 984.838 86.0408C982.998 86.6541 981.377 87.6616 979.976 89.0632C978.574 90.4649 977.435 92.3046 976.559 94.5824C975.771 96.8601 975.376 99.6197 975.376 102.861V131.377H955.402V66.0668H974.719V74.8711C975.595 73.0314 976.69 71.4983 978.005 70.2718C979.406 69.0454 980.896 68.0817 982.472 67.3809C984.049 66.68 985.626 66.1982 987.203 65.9354C988.868 65.5849 990.357 65.4097 991.671 65.4097C993.686 65.4097 995.438 65.6287 996.927 66.0668V85.778Z" fill="#2F2E41"/>
<path d="M97.1945 68.8505L71.6341 94.4108L78.409 101.188C79.0464 101.823 79.8911 102.175 80.7891 102.175C82.136 102.175 83.3613 101.376 83.9035 100.143C84.3848 99.0548 84.5675 97.8201 84.4799 96.5987C86.6108 96.7965 88.6655 96.1059 90.0772 94.6943C91.5002 93.2712 92.1262 91.2355 91.974 89.2074C94.0534 89.3691 96.0872 88.6842 97.476 87.2954C98.9486 85.8228 99.584 83.7548 99.3995 81.7058C100.621 81.7781 101.878 81.5859 102.927 81.1217C103.956 80.6689 104.694 79.7386 104.9 78.6351C105.105 77.5412 104.759 76.4149 103.971 75.6253L97.1945 68.8505Z" fill="url(#paint0_linear)"/>
<path d="M18.0041 104.884L1.7889 121.099C-0.250596 123.139 -0.59115 126.362 0.999356 128.595C2.07238 130.1 3.81508 131 5.66053 131C7.19015 131 8.62274 130.408 9.69576 129.333L25.9927 113.036L18.0041 104.884Z" fill="url(#paint1_linear)"/>
<path d="M36.5803 59.3568L62.1425 33.7965L55.3334 26.9874C54.696 26.352 53.8513 26 52.9533 26C51.6063 26 50.383 26.7972 49.8389 28.03C49.3576 29.1201 49.1749 30.3549 49.2605 31.5763C47.1449 31.3803 45.0769 32.069 43.6652 33.4807C42.2421 34.9038 41.6162 36.9395 41.7684 38.9676C39.6852 38.7963 37.6552 39.4908 36.2663 40.8796C34.7938 42.3521 34.1584 44.4202 34.3429 46.4692C33.1082 46.3912 31.862 46.589 30.8194 47.0533C29.7883 47.5061 29.0501 48.4364 28.8427 49.5398C28.6372 50.6338 28.9816 51.7601 29.7711 52.5496L36.5803 59.3568Z" fill="url(#paint2_linear)"/>
<path d="M75.8768 47.5327L64.8308 36.4867L39.2686 62.0489C41.8103 64.604 43.8574 67.5605 45.3471 70.8405C46.599 73.5915 46.0035 76.881 43.865 79.0213L20.6943 102.192L28.683 110.344L51.9355 87.0937C54.053 84.9762 57.3805 84.3674 60.1183 85.6116C63.4096 87.107 66.3775 89.1636 68.944 91.7225L94.5044 66.1603L83.426 55.0819L82.2636 55.5423C80.2564 56.3395 77.941 55.9666 76.4304 54.4655C74.9979 53.0215 74.5983 50.7575 75.4183 48.6971L75.8768 47.5327Z" fill="url(#paint3_linear)"/>
<defs>
<linearGradient id="paint0_linear" x1="88.296" y1="102.175" x2="88.296" y2="68.8505" gradientUnits="userSpaceOnUse">
<stop stop-color="#F46F6F"/>
<stop offset="1" stop-color="#FF9473"/>
</linearGradient>
<linearGradient id="paint1_linear" x1="12.9964" y1="131" x2="12.9964" y2="104.884" gradientUnits="userSpaceOnUse">
<stop stop-color="#F46F6F"/>
<stop offset="1" stop-color="#FF9473"/>
</linearGradient>
<linearGradient id="paint2_linear" x1="45.4635" y1="59.3568" x2="45.4635" y2="26" gradientUnits="userSpaceOnUse">
<stop stop-color="#F46F6F"/>
<stop offset="1" stop-color="#FF9473"/>
</linearGradient>
<linearGradient id="paint3_linear" x1="57.5993" y1="110.344" x2="57.5993" y2="36.4867" gradientUnits="userSpaceOnUse">
<stop stop-color="#F46F6F"/>
<stop offset="1" stop-color="#FF9473"/>
</linearGradient>
</defs>
</svg>
