<svg width="28" height="28" viewBox="0 0 28 28" fill="none" xmlns="http://www.w3.org/2000/svg">
<path d="M25.006 11.6167L18.4299 18.1928L20.1729 19.9363C20.3369 20.0998 20.5542 20.1904 20.7852 20.1904C21.1318 20.1904 21.447 19.9848 21.5865 19.6676C21.7103 19.3876 21.7573 19.07 21.7348 18.7557C22.283 18.8066 22.8117 18.6289 23.1748 18.2658C23.541 17.8996 23.702 17.3759 23.6629 16.8541C24.1978 16.8957 24.7211 16.7195 25.0784 16.3622C25.4573 15.9833 25.6208 15.4513 25.5733 14.9241C25.8875 14.9427 26.2111 14.8933 26.4808 14.7738C26.7456 14.6573 26.9355 14.418 26.9883 14.1341C27.0412 13.8527 26.9521 13.5629 26.7495 13.3598L25.006 11.6167Z" fill="url(#paint0_linear)"/>
<path d="M4.63207 20.8874L0.460284 25.0592C-0.0644324 25.5839 -0.152049 26.4131 0.257152 26.9877C0.533215 27.3749 0.981574 27.6064 1.45636 27.6064C1.8499 27.6064 2.21848 27.4542 2.49454 27.1777L6.68738 22.9848L4.63207 20.8874Z" fill="url(#paint1_linear)"/>
<path d="M9.41127 9.17425L15.9879 2.59817L14.236 0.846338C14.0721 0.682854 13.8547 0.592302 13.6237 0.592302C13.2771 0.592302 12.9624 0.797391 12.8224 1.11457C12.6986 1.39504 12.6516 1.71271 12.6736 2.02695C12.1293 1.97654 11.5973 2.15372 11.2341 2.51691C10.868 2.88304 10.7069 3.40678 10.7461 3.92856C10.2101 3.88451 9.68783 4.06316 9.33051 4.42048C8.95166 4.79933 8.78817 5.33139 8.83565 5.85856C8.51799 5.83849 8.19738 5.88939 7.92915 6.00882C7.66385 6.12532 7.47393 6.36467 7.42058 6.64857C7.36772 6.93001 7.45632 7.21978 7.65945 7.42292L9.41127 9.17425Z" fill="url(#paint2_linear)"/>
<path d="M19.5215 6.13218L16.6796 3.29029L10.103 9.86687C10.7569 10.5242 11.2836 11.2849 11.6669 12.1287C11.9889 12.8365 11.8357 13.6828 11.2856 14.2335L5.32426 20.1948L7.37956 22.2922L13.3619 16.3103C13.9067 15.7655 14.7628 15.6089 15.4671 15.929C16.3139 16.3137 17.0775 16.8429 17.7378 17.5012L24.3139 10.9246L21.4637 8.07441L21.1646 8.19287C20.6482 8.39795 20.0525 8.30202 19.6639 7.91582C19.2953 7.54431 19.1925 6.96184 19.4035 6.43174L19.5215 6.13218Z" fill="url(#paint3_linear)"/>
<defs>
<linearGradient id="paint0_linear" x1="22.7166" y1="20.1904" x2="22.7166" y2="11.6167" gradientUnits="userSpaceOnUse">
<stop stop-color="#F46F6F"/>
<stop offset="1" stop-color="#FF9473"/>
</linearGradient>
<linearGradient id="paint1_linear" x1="3.34371" y1="27.6064" x2="3.34371" y2="20.8874" gradientUnits="userSpaceOnUse">
<stop stop-color="#F46F6F"/>
<stop offset="1" stop-color="#FF9473"/>
</linearGradient>
<linearGradient id="paint2_linear" x1="11.6967" y1="9.17425" x2="11.6967" y2="0.592302" gradientUnits="userSpaceOnUse">
<stop stop-color="#F46F6F"/>
<stop offset="1" stop-color="#FF9473"/>
</linearGradient>
<linearGradient id="paint3_linear" x1="14.8191" y1="22.2922" x2="14.8191" y2="3.29029" gradientUnits="userSpaceOnUse">
<stop stop-color="#F46F6F"/>
<stop offset="1" stop-color="#FF9473"/>
</linearGradient>
</defs>
</svg>
